name rise44.9368peak50.754fall52.0217.mot
datacolumns 19
datarows 23
range 16.99161100000000 17.02827600000000
endheader
time	ground_force1_vx	ground_force1_vy	ground_force1_vz	ground_force1_px	ground_force1_py	ground_force1_pz	ground_force2_vx	ground_force2_vy	ground_force2_vz	ground_force2_px	ground_force2_py	ground_force2_pz	ground_torque1_x	ground_torque1_y	ground_torque1_z	ground_torque2_x	ground_torque2_y	ground_torque2_z	
16.99161100000000	-4.06576000000000	44.69859600000000	-8.62611500000000	0.26641300000000	0.00000000000000	0.14622800000000	-52.48771000000000	787.94530699999996	-61.99376900000000	0.11545200000000	0.00000000000000	-0.06733100000000	0.00000000000000	-5.39313800000000	0.00000000000000	0.00000000000000	-20.63865400000000	0.00000000000000	
16.99327700000000	-4.36672700000000	52.63427400000000	-9.68893600000000	0.27662400000000	0.00000000000000	0.14693400000000	-53.06909100000000	785.59182299999998	-61.59420400000000	0.11468600000000	0.00000000000000	-0.06723800000000	0.00000000000000	-6.20139400000000	0.00000000000000	0.00000000000000	-20.50989900000000	0.00000000000000	
16.99494400000000	-4.56315900000000	60.72943500000000	-10.64984500000000	0.28566700000000	0.00000000000000	0.14756300000000	-53.65382600000000	783.11789599999997	-61.16667700000000	0.11393700000000	0.00000000000000	-0.06714100000000	0.00000000000000	-6.96821300000000	0.00000000000000	0.00000000000000	-20.37993100000000	0.00000000000000	
16.99660400000000	-4.64263500000000	68.88281400000000	-11.48564900000000	0.29374100000000	0.00000000000000	0.14812900000000	-54.24164600000000	780.52140099999997	-60.71112100000000	0.11320800000000	0.00000000000000	-0.06703800000000	0.00000000000000	-7.67580600000000	0.00000000000000	0.00000000000000	-20.24884600000000	0.00000000000000	
16.99827300000000	-4.59786500000000	77.01553600000000	-12.18089900000000	0.30100400000000	0.00000000000000	0.14864300000000	-54.83223500000000	777.80014600000004	-60.22751200000000	0.11249800000000	0.00000000000000	-0.06693000000000	0.00000000000000	-8.31127200000000	0.00000000000000	0.00000000000000	-20.11672800000000	0.00000000000000	
16.99994200000000	-4.42656700000000	85.07375600000000	-12.72799500000000	0.30757900000000	0.00000000000000	0.14911300000000	-55.42522300000000	774.95187799999997	-59.71587500000000	0.11180700000000	0.00000000000000	-0.06681700000000	0.00000000000000	-8.86688300000000	0.00000000000000	0.00000000000000	-19.98365300000000	0.00000000000000	
17.00160300000000	-4.13095500000000	93.02879500000000	-13.12663000000000	0.31356500000000	0.00000000000000	0.14954500000000	-56.02018800000000	771.97428600000001	-59.17627800000000	0.11113700000000	0.00000000000000	-0.06669800000000	0.00000000000000	-9.33990800000000	0.00000000000000	0.00000000000000	-19.84968500000000	0.00000000000000	
17.00327500000000	-3.71695600000000	100.87518400000000	-13.38273500000000	0.31904200000000	0.00000000000000	0.14994600000000	-56.61665500000000	768.86500500000000	-58.60883800000000	0.11048700000000	0.00000000000000	-0.06657400000000	0.00000000000000	-9.73205100000000	0.00000000000000	0.00000000000000	-19.71487800000000	0.00000000000000	
17.00493700000000	-3.19325700000000	108.62713300000000	-13.50709200000000	0.32407600000000	0.00000000000000	0.15031900000000	-57.21409000000000	765.62162000000001	-58.01372100000000	0.10985800000000	0.00000000000000	-0.06644400000000	0.00000000000000	-10.04861700000000	0.00000000000000	0.00000000000000	-19.57927600000000	0.00000000000000	
17.00660400000000	-2.57029700000000	116.31399000000000	-13.51379700000000	0.32872200000000	0.00000000000000	0.15066900000000	-57.81190100000000	762.24167999999997	-57.39114200000000	0.10925100000000	0.00000000000000	-0.06630900000000	0.00000000000000	-10.29752600000000	0.00000000000000	0.00000000000000	-19.44290700000000	0.00000000000000	
17.00827000000000	-1.85929200000000	123.97526000000001	-13.41871600000000	0.33302500000000	0.00000000000000	0.15099800000000	-58.40944100000000	758.72269500000004	-56.74136900000000	0.10866500000000	0.00000000000000	-0.06616800000000	0.00000000000000	-10.48828500000000	0.00000000000000	0.00000000000000	-19.30579200000000	0.00000000000000	
17.00993900000000	-1.07137500000000	131.65564499999999	-13.23806900000000	0.33702300000000	0.00000000000000	0.15130900000000	-59.00599700000000	755.06215299999997	-56.06471800000000	0.10810100000000	0.00000000000000	-0.06602200000000	0.00000000000000	-10.63100300000000	0.00000000000000	0.00000000000000	-19.16793800000000	0.00000000000000	
17.01160400000000	-0.21688600000000	139.40051000000000	-12.98722700000000	0.34074900000000	0.00000000000000	0.15160400000000	-59.60080100000000	751.25752699999998	-55.36156000000000	0.10756000000000	0.00000000000000	-0.06587000000000	0.00000000000000	-10.73553100000000	0.00000000000000	0.00000000000000	-19.02933900000000	0.00000000000000	
17.01327600000000	0.69514500000000	147.25205900000000	-12.67978700000000	0.34423000000000	0.00000000000000	0.15188500000000	-60.19301900000000	747.30628100000001	-54.63231700000000	0.10704200000000	0.00000000000000	-0.06571200000000	0.00000000000000	-10.81076900000000	0.00000000000000	0.00000000000000	-18.88997900000000	0.00000000000000	
17.01493600000000	1.65731700000000	155.24638300000001	-12.32693700000000	0.34749100000000	0.00000000000000	0.15215400000000	-60.78175800000000	743.20588699999996	-53.87746500000000	0.10654600000000	0.00000000000000	-0.06554900000000	0.00000000000000	-10.86417000000000	0.00000000000000	0.00000000000000	-18.74982700000000	0.00000000000000	
17.01661600000000	2.66400300000000	163.41146400000000	-11.93712100000000	0.35055100000000	0.00000000000000	0.15241100000000	-61.36606400000000	738.95383400000003	-53.09753300000000	0.10607300000000	0.00000000000000	-0.06538000000000	0.00000000000000	-10.90143900000000	0.00000000000000	0.00000000000000	-18.60884300000000	0.00000000000000	
17.01826900000000	3.71132100000000	171.76610299999999	-11.51597100000000	0.35342700000000	0.00000000000000	0.15265800000000	-61.94492100000000	734.54764000000000	-52.29310100000000	0.10562400000000	0.00000000000000	-0.06520600000000	0.00000000000000	-10.92642300000000	0.00000000000000	0.00000000000000	-18.46697400000000	0.00000000000000	
17.01994000000000	4.79697600000000	180.31969699999999	-11.06645600000000	0.35613600000000	0.00000000000000	0.15289600000000	-62.51725200000000	729.98487000000000	-51.46480500000000	0.10519900000000	0.00000000000000	-0.06502600000000	0.00000000000000	-10.94115800000000	0.00000000000000	0.00000000000000	-18.32415500000000	0.00000000000000	
17.02160300000000	5.92001300000000	189.07271600000001	-10.58921300000000	0.35869100000000	0.00000000000000	0.15312500000000	-63.08192200000000	725.26314700000000	-50.61333100000000	0.10479600000000	0.00000000000000	-0.06484100000000	0.00000000000000	-10.94605600000000	0.00000000000000	0.00000000000000	-18.18031100000000	0.00000000000000	
17.02327600000000	7.08049800000000	198.01772299999999	-10.08298300000000	0.36110200000000	0.00000000000000	0.15334700000000	-63.63773700000000	720.38017000000002	-49.73941700000000	0.10441800000000	0.00000000000000	-0.06464900000000	0.00000000000000	-10.94016500000000	0.00000000000000	0.00000000000000	-18.03535600000000	0.00000000000000	
17.02493500000000	8.27918500000000	207.14076499999999	-9.54511800000000	0.36338100000000	0.00000000000000	0.15356200000000	-64.18344800000000	715.33373099999994	-48.84385400000000	0.10406400000000	0.00000000000000	-0.06445300000000	0.00000000000000	-10.92150400000000	0.00000000000000	0.00000000000000	-17.88919400000000	0.00000000000000	
17.02661100000000	9.51718400000000	216.42294500000000	-8.97209900000000	0.36553600000000	0.00000000000000	0.15377000000000	-64.71775200000000	710.12173099999995	-47.92748100000000	0.10373300000000	0.00000000000000	-0.06425000000000	0.00000000000000	-10.88740100000000	0.00000000000000	0.00000000000000	-17.74171800000000	0.00000000000000	
17.02827600000000	10.79565200000000	225.84205700000001	-8.36002000000000	0.36757500000000	0.00000000000000	0.15397300000000	-65.23929200000001	704.74220200000002	-46.99118400000000	0.10342600000000	0.00000000000000	-0.06404300000000	0.00000000000000	-10.83483000000000	0.00000000000000	0.00000000000000	-17.59281400000000	0.00000000000000	
